<svg width="53" height="36" viewBox="0 0 53 36" fill="none" xmlns="http://www.w3.org/2000/svg">
<rect y="0.25" width="53" height="35" rx="4" fill="white"/>
<path d="M46.6106 17.7496C46.6106 24.4348 41.175 29.9329 34.4274 29.9329C27.7422 29.9329 22.2441 24.4348 22.2441 17.7496C22.2441 11.0645 27.6797 5.56641 34.3649 5.56641C41.175 5.56641 46.6106 11.0645 46.6106 17.7496Z" fill="#F9B50B"/>
<path d="M30.304 17.8121C30.304 16.9374 30.179 16.0627 30.0541 15.2505H22.5567C22.6192 14.8132 22.7441 14.4383 22.8691 13.9385H29.5543C29.4293 13.5011 29.2419 13.0638 29.0544 12.6264H23.3689C23.5564 12.1891 23.8063 11.8142 24.0562 11.3144H28.3672C28.1173 10.8771 27.8049 10.4397 27.43 10.0024H25.0558C25.4307 9.56501 25.8056 9.19014 26.3054 8.75279C24.1811 6.75349 21.3071 5.56641 18.1208 5.56641C11.4981 5.75384 6 11.0645 6 17.7496C6 24.4348 11.4356 29.9329 18.1832 29.9329C21.3696 29.9329 24.1811 28.6833 26.3679 26.7465C26.8052 26.3716 27.1801 25.9343 27.6174 25.4345H25.1183C24.8059 25.0596 24.4935 24.6222 24.2436 24.1849H28.4921C28.7421 23.81 28.992 23.3727 29.1794 22.8729H23.4939C23.3064 22.498 23.119 22.0606 22.9941 21.5608H29.6792C30.0541 20.4362 30.304 19.1866 30.304 17.8121Z" fill="#C8191C"/>
<path d="M22.4935 20.8735L22.6809 19.7489C22.6184 19.7489 22.4935 19.8114 22.3685 19.8114C21.9312 19.8114 21.8687 19.5615 21.9312 19.4365L22.3061 17.1873H22.9933L23.1807 15.9377H22.556L22.6809 15.188H21.3689C21.3689 15.188 20.6191 19.4365 20.6191 19.9363C20.6191 20.6861 21.0565 21.0609 21.6813 21.0609C22.0561 21.0609 22.3685 20.936 22.4935 20.8735Z" fill="white"/>
<path d="M22.9297 18.8115C22.9297 20.6233 24.1793 21.0607 25.1789 21.0607C26.1161 21.0607 26.5534 20.8732 26.5534 20.8732L26.8033 19.6237C26.8033 19.6237 26.1161 19.9361 25.4288 19.9361C23.9918 19.9361 24.2417 18.8739 24.2417 18.8739H26.8658C26.8658 18.8739 27.0532 18.0617 27.0532 17.6869C27.0532 16.8746 26.6159 15.8125 25.1789 15.8125C23.9293 15.75 22.9297 17.187 22.9297 18.8115ZM25.1789 16.9371C25.8662 16.9371 25.7412 17.7493 25.7412 17.8118H24.3042C24.3667 17.7493 24.4916 16.9371 25.1789 16.9371Z" fill="white"/>
<path d="M33.3659 20.8733L33.6159 19.4363C33.6159 19.4363 32.9911 19.7487 32.4913 19.7487C31.6166 19.7487 31.1792 19.0614 31.1792 18.2492C31.1792 16.6872 31.9289 15.875 32.8661 15.875C33.4909 15.875 34.0532 16.2499 34.0532 16.2499L34.2406 14.8754C34.2406 14.8754 33.4909 14.563 32.7412 14.563C31.2417 14.563 29.8047 15.875 29.8047 18.3117C29.8047 19.9361 30.5544 20.9982 32.1164 20.9982C32.6787 21.0607 33.3659 20.8733 33.3659 20.8733Z" fill="white"/>
<path d="M15.4327 15.75C14.558 15.75 13.8708 15.9999 13.8708 15.9999L13.6834 17.1245C13.6834 17.1245 14.2457 16.8746 15.1204 16.8746C15.5577 16.8746 15.9326 16.9371 15.9326 17.312C15.9326 17.5619 15.8701 17.6243 15.8701 17.6243H15.3078C14.1832 17.6243 12.9961 18.0617 12.9961 19.5612C12.9961 20.7483 13.7458 20.9982 14.2457 20.9982C15.1204 20.9982 15.5577 20.4359 15.6202 20.4359L15.5577 20.9357H16.6198L17.1197 17.3744C17.1197 15.8125 15.8701 15.75 15.4327 15.75ZM15.6827 18.624C15.6827 18.8114 15.5577 19.8736 14.808 19.8736C14.4331 19.8736 14.3081 19.5612 14.3081 19.3737C14.3081 19.0613 14.4956 18.624 15.4952 18.624C15.6202 18.624 15.6827 18.624 15.6827 18.624Z" fill="white"/>
<path d="M18.3705 20.9986C18.6829 20.9986 20.3074 21.0611 20.3074 19.3117C20.3074 17.6873 18.7454 17.9997 18.7454 17.3749C18.7454 17.0625 18.9953 16.9376 19.4327 16.9376C19.6201 16.9376 20.3074 17 20.3074 17L20.4948 15.8129C20.4948 15.8129 20.0575 15.688 19.2452 15.688C18.3081 15.688 17.3084 16.0629 17.3084 17.3749C17.3084 18.8744 18.9329 18.7494 18.9329 19.3117C18.9329 19.6866 18.4955 19.7491 18.1831 19.7491C17.6208 19.7491 16.996 19.5616 16.996 19.5616L16.8086 20.7487C16.9336 20.8737 17.3084 20.9986 18.3705 20.9986Z" fill="white"/>
<path d="M44.11 14.7505L43.8601 16.4999C43.8601 16.4999 43.3603 15.8751 42.6106 15.8751C41.4235 15.8751 40.4238 17.3121 40.4238 18.999C40.4238 20.0611 40.9237 21.1233 42.0483 21.1233C42.798 21.1233 43.2978 20.6234 43.2978 20.6234L43.2353 21.0608H44.5474L45.4846 14.8754L44.11 14.7505ZM43.4853 18.1243C43.4853 18.8116 43.1729 19.7487 42.4231 19.7487C41.9858 19.7487 41.7359 19.3739 41.7359 18.6866C41.7359 17.6245 42.1732 16.9997 42.798 16.9997C43.2353 17.0622 43.4853 17.3746 43.4853 18.1243Z" fill="white"/>
<path d="M8.37261 20.9358L9.12235 16.3124L9.2473 20.9358H10.122L11.8089 16.3124L11.1216 20.9358H12.4962L13.5583 14.7505H11.434L10.122 18.5617L10.0595 14.7505H8.18518L7.12305 20.9358H8.37261Z" fill="white"/>
<path d="M28.3667 20.9362C28.7416 18.812 28.804 17.0626 29.7412 17.375C29.8662 16.5627 30.0536 16.1879 30.1786 15.8755H29.9286C29.3663 15.8755 28.8665 16.6252 28.8665 16.6252L28.9915 15.938H27.7419L26.9297 20.9362H28.3667Z" fill="white"/>
<path d="M36.3644 15.75C35.4897 15.75 34.8024 15.9999 34.8024 15.9999L34.615 17.1245C34.615 17.1245 35.1773 16.8746 36.052 16.8746C36.4893 16.8746 36.8642 16.9371 36.8642 17.312C36.8642 17.5619 36.8017 17.6243 36.8017 17.6243H36.2394C35.1148 17.6243 33.9277 18.0617 33.9277 19.5612C33.9277 20.7483 34.6775 20.9982 35.1773 20.9982C36.052 20.9982 36.4893 20.4359 36.5518 20.4359L36.4893 20.9357H37.6764L38.1762 17.3744C38.1762 15.8125 36.8017 15.75 36.3644 15.75ZM36.6768 18.624C36.6768 18.8114 36.5518 19.8736 35.8021 19.8736C35.4272 19.8736 35.3023 19.5612 35.3023 19.3737C35.3023 19.0613 35.4897 18.624 36.4893 18.624C36.6143 18.624 36.6143 18.624 36.6768 18.624Z" fill="white"/>
<path d="M39.1753 20.9362C39.5501 18.812 39.6126 17.0626 40.5498 17.375C40.6748 16.5627 40.8622 16.1879 40.9871 15.8755H40.7372C40.1749 15.8755 39.6751 16.6252 39.6751 16.6252L39.8001 15.938H38.5505L37.7383 20.9362H39.1753Z" fill="white"/>
</svg>
