<svg width="41" height="40" viewBox="0 0 41 40" fill="none" xmlns="http://www.w3.org/2000/svg">
<path d="M31.9627 17.5841C31.5541 17.3472 31.0905 17.2216 30.6182 17.2199C30.1458 17.2183 29.6814 17.3406 29.2711 17.5748C29.2367 17.5946 29.2038 17.6163 29.1705 17.6373C29.059 15.9705 27.7212 15.0982 26.3971 15.0975H26.3948C25.6057 15.0975 24.812 15.4073 24.2751 16.0102C23.7398 15.3503 22.9088 15.0107 22.0835 15.0102H22.0811C21.5403 15.0086 21.0095 15.1557 20.5466 15.4354L20.551 6.55529C20.5509 5.81837 20.2586 5.11156 19.7381 4.58984C19.2177 4.06813 18.5116 3.7741 17.7746 3.77222H17.7693C17.0336 3.77489 16.3287 4.06831 15.8084 4.58851C15.288 5.10871 14.9944 5.81351 14.9916 6.54927L14.9818 21.2221L13.4373 19.1889C12.5665 18.0401 11.2232 17.4271 9.93246 17.5897C8.96521 17.7113 8.1903 18.2529 7.85984 19.0383C7.64172 19.5567 7.43907 20.6416 8.5328 22.0835C10.8171 25.0937 11.587 27.2849 12.2663 29.2181C12.8196 30.7928 13.2975 32.1526 14.4616 33.4837C15.492 34.6639 15.9869 35.9932 15.9749 37.5477L15.9638 38.9472C15.9632 39.0293 15.9787 39.1108 16.0095 39.1869C16.0403 39.263 16.0858 39.3322 16.1434 39.3907C16.201 39.4493 16.2695 39.4958 16.3451 39.5279C16.4207 39.5599 16.5019 39.5767 16.584 39.5773H28.6076C28.7733 39.576 28.9317 39.5089 29.048 39.3907C29.1643 39.2726 29.2289 39.1131 29.2276 38.9474L29.2165 37.5461C29.2044 35.988 29.7 34.6574 30.7315 33.4782C32.3941 31.5792 33.3094 29.1404 33.3067 26.6164L33.3133 20.1193C33.315 19.006 32.8226 18.0821 31.9627 17.5841Z" fill="#FA5629"/>
<path d="M12.8956 12.3426C11.9167 11.3688 11.2489 10.1263 10.9767 8.77261C10.7045 7.41891 10.8402 6.01488 11.3667 4.73839C11.8931 3.46189 12.7866 2.37036 13.9339 1.60207C15.0812 0.833773 16.4307 0.423288 17.8115 0.422608C19.1923 0.421929 20.5422 0.831086 21.6903 1.59825C22.8384 2.36541 23.7329 3.45606 24.2606 4.73204C24.7883 6.00802 24.9254 7.41191 24.6545 8.76588C24.3837 10.1198 23.7171 11.363 22.7392 12.3378C22.681 12.3957 22.612 12.4416 22.5361 12.4728C22.4602 12.5041 22.3789 12.5201 22.2969 12.52C22.2148 12.5198 22.1335 12.5035 22.0578 12.4719C21.982 12.4404 21.9132 12.3942 21.8553 12.336C21.7973 12.2779 21.7514 12.2089 21.7202 12.133C21.6889 12.0571 21.6729 11.9758 21.6731 11.8937C21.6732 11.8117 21.6895 11.7304 21.7211 11.6547C21.7527 11.5789 21.7988 11.5101 21.857 11.4522C22.6595 10.652 23.2065 9.63167 23.4286 8.52041C23.6508 7.40915 23.5382 6.25696 23.105 5.20976C22.6718 4.16257 21.9376 3.26749 20.9953 2.6379C20.0531 2.00831 18.9451 1.67253 17.8119 1.6731C16.6786 1.67367 15.571 2.01056 14.6294 2.6411C13.6878 3.27164 12.9544 4.16745 12.5223 5.21508C12.0902 6.26271 11.9787 7.41502 12.202 8.52606C12.4253 9.63709 12.9733 10.6569 13.7766 11.4562C13.8353 11.514 13.882 11.5828 13.9141 11.6586C13.9461 11.7345 13.9628 11.8159 13.9633 11.8983C13.9637 11.9807 13.9479 12.0623 13.9167 12.1385C13.8855 12.2147 13.8396 12.284 13.7815 12.3424C13.7234 12.4008 13.6544 12.4472 13.5784 12.4788C13.5023 12.5104 13.4208 12.5267 13.3384 12.5268C13.2561 12.5268 13.1745 12.5105 13.0985 12.4789C13.0224 12.4473 12.9537 12.401 12.8956 12.3426Z" fill="black"/>
</svg>
