<svg width="16" height="17" viewBox="0 0 16 17" fill="none" xmlns="http://www.w3.org/2000/svg">
<path d="M13.9477 0.375C13.0614 2.625 11.9789 3.17375 10.2752 4.75C8.65015 6.26125 8.57015 7.8525 8.60265 9.72125C9.3064 8.45 10.1989 7.5875 11.0852 6.8125C12.1689 5.8625 12.7827 5.12625 13.7739 3.01875L13.8364 2.8375C13.852 2.79721 13.8806 2.76325 13.9176 2.74094C13.9546 2.71863 13.9979 2.70924 14.0408 2.71425C14.0838 2.71926 14.1238 2.73837 14.1547 2.7686C14.1855 2.79883 14.2055 2.83845 14.2114 2.88125C14.2325 3.07506 14.2215 3.27102 14.1789 3.46125C13.3114 7.21125 11.2852 7.42125 9.7539 10.2587C11.3752 9.80375 14.1902 10.015 15.3402 6.75C16.3527 3.875 15.3402 1.625 13.9477 0.375Z" fill="#06C167"/>
<path d="M2.25 8.32628C2.91125 9.44378 4.21125 10 6.0625 10.125C4.94625 7.34253 3.44375 5.64754 3.42 5.62504L3.375 5.56378C3.34338 5.52136 3.32693 5.46955 3.32826 5.41666C3.3296 5.36376 3.34865 5.31285 3.38237 5.27207C3.41608 5.2313 3.46251 5.20302 3.51421 5.19177C3.56591 5.18052 3.61989 5.18695 3.6675 5.21003C4.0425 5.39878 5.6675 7.01504 6.8175 9.19379C6.995 7.94379 6.9425 6.21378 5.24375 4.52003C4.15125 3.43128 2.13875 3.12503 0 3.67628C2.23125 5.42629 1.3675 6.83378 2.25 8.32503V8.32628Z" fill="#06C167"/>
<path d="M11.7317 7.36625C12.8367 6.2875 13.6367 4.94375 14.0005 3.125C13.0005 5.25 12.3655 6.0225 11.2505 7C9.87547 8.20125 8.47047 9.625 7.83547 12.54C6.72422 8.05625 3.75922 5.57375 3.60547 5.45375C3.60547 5.45375 7.50047 9.77375 7.50047 16.125H8.25047C8.25047 11.02 10.1005 8.96125 11.7317 7.36625Z" fill="#06C167"/>
<path d="M11.1242 3.66127C11.4005 3.42127 11.6542 3.20127 11.8892 2.98252C10.6634 2.04735 9.14976 1.56901 7.60913 1.62993C6.06851 1.69085 4.59738 2.28722 3.44922 3.31627C3.83022 3.40241 4.19892 3.53595 4.54672 3.71377C5.4989 3.01591 6.6465 2.63532 7.82699 2.62589C9.00749 2.61647 10.161 2.9787 11.1242 3.66127Z" fill="#06C167"/>
<path d="M2.27869 8.80884C1.65369 8.01134 1.60994 7.27384 1.46619 6.55884C1.22279 7.48373 1.18253 8.45035 1.34816 9.39228C1.5138 10.3342 1.88141 11.2291 2.42573 12.0155C2.97005 12.8018 3.67817 13.461 4.50143 13.9478C5.3247 14.4345 6.24358 14.7372 7.19494 14.8351C7.16619 14.4863 7.12494 14.1463 7.06994 13.8138C5.82728 13.634 4.68051 13.0436 3.81224 12.1366C2.94398 11.2296 2.40414 10.0582 2.27869 8.80884Z" fill="#06C167"/>
<path d="M13.3492 9.54628C13.0879 10.6501 12.4991 11.6491 11.6599 12.4123C10.8206 13.1754 9.77032 13.667 8.64672 13.8225C8.60172 14.145 8.56797 14.4838 8.54297 14.84C10.101 14.6821 11.5528 13.9774 12.6406 12.8509C13.7284 11.7243 14.3821 10.2489 14.4855 8.68628C14.1573 9.03429 13.7733 9.32496 13.3492 9.54628Z" fill="#06C167"/>
</svg>
